<?xml version="1.0" standalone="no"?>
<!DOCTYPE svg PUBLIC "-//W3C//DTD SVG 20010904//EN"
 "http://www.w3.org/TR/2001/REC-SVG-20010904/DTD/svg10.dtd">
<svg version="1.0" xmlns="http://www.w3.org/2000/svg"
 width="329.000000pt" height="255.000000pt" viewBox="0 0 329.000000 255.000000"
 preserveAspectRatio="xMidYMid meet">

<g transform="translate(0.000000,255.000000) scale(0.100000,-0.100000)"
fill="#000000" stroke="none">
<path d="M1057 1555 c-163 -255 -297 -467 -297 -470 0 -3 405 -5 901 -5 495 0
899 4 897 8 -1 5 -136 217 -298 470 l-295 461 -305 1 -305 0 -298 -465z m740
-218 l132 -232 -135 -3 c-74 -1 -195 -1 -269 0 l-135 3 132 232 c73 128 135
233 138 232 3 0 64 -104 137 -232z"/>
<path d="M691 969 c-5 -13 -16 -42 -25 -63 -9 -22 -14 -41 -11 -44 2 -3 7 3
11 12 8 21 62 22 70 1 4 -8 10 -15 14 -15 7 0 -35 117 -46 129 -2 2 -8 -7 -13
-20z m25 -56 c-2 -3 -11 -3 -19 -1 -11 2 -12 9 -5 28 l10 25 9 -24 c5 -13 7
-26 5 -28z"/>
<path d="M832 928 l-2 -68 33 1 c29 2 30 2 5 6 -26 4 -27 8 -31 66 l-3 62 -2
-67z"/>
<path d="M958 984 c-5 -4 -8 -34 -8 -66 l0 -58 33 1 c22 1 25 3 10 6 -19 4
-22 12 -25 65 -2 33 -6 56 -10 52z"/>
<path d="M1118 979 c-3 -8 -15 -38 -27 -66 -11 -29 -16 -53 -11 -53 6 0 10 7
10 15 0 10 11 15 35 15 24 0 35 -5 35 -15 0 -8 4 -15 10 -15 9 0 -18 80 -39
118 -7 12 -9 12 -13 1z m16 -67 c-22 -5 -27 3 -19 29 l7 22 14 -24 c11 -20 10
-25 -2 -27z"/>
<path d="M1252 924 c1 -67 1 -67 7 -19 l6 49 32 -49 33 -50 -2 70 c-1 58 -2
62 -5 21 l-4 -49 -35 48 -34 49 2 -70z"/>
<path d="M1517 983 c-4 -3 -7 -33 -7 -65 l0 -58 43 2 c36 1 38 2 10 5 -27 4
-33 9 -33 28 0 19 6 24 33 28 l32 4 -32 1 c-28 2 -33 6 -33 26 0 20 6 25 33
29 l32 4 -36 1 c-20 1 -39 -1 -42 -5z"/>
<path d="M1670 926 l0 -66 29 0 c30 0 71 38 71 65 0 23 -35 55 -67 61 l-33 7
0 -67z m68 32 c7 -7 12 -25 12 -40 0 -21 -6 -31 -26 -38 -41 -16 -44 -13 -44
40 0 46 2 50 23 50 13 0 28 -5 35 -12z"/>
<path d="M1842 939 c-2 -59 9 -79 44 -79 34 0 45 23 41 82 l-3 53 -2 -57 c-2
-47 -5 -58 -22 -63 -32 -10 -49 12 -53 68 l-3 52 -2 -56z"/>
<path d="M2048 979 c-3 -8 -15 -38 -27 -66 -11 -29 -16 -53 -11 -53 6 0 10 7
10 15 0 10 11 15 35 15 24 0 35 -5 35 -15 0 -8 4 -15 10 -15 9 0 -18 80 -39
118 -7 12 -9 12 -13 1z m16 -67 c-22 -5 -27 3 -19 29 l7 22 14 -24 c11 -20 10
-25 -2 -27z"/>
<path d="M2181 923 c1 -38 4 -56 6 -40 5 34 18 34 39 2 9 -14 21 -25 27 -25 5
0 2 9 -8 20 -17 19 -17 21 -2 38 32 36 11 72 -42 72 -19 0 -21 -5 -20 -67z
m64 37 c9 -15 -14 -40 -36 -40 -14 0 -19 7 -19 25 0 20 5 25 24 25 14 0 28 -5
31 -10z"/>
<path d="M2330 925 l0 -65 30 0 c36 0 70 31 70 64 0 29 -43 66 -76 66 -23 0
-24 -3 -24 -65z m74 29 c21 -21 20 -40 -5 -65 -33 -33 -54 -21 -57 34 -3 44
-2 47 22 47 13 0 32 -7 40 -16z"/>
<path d="M2520 970 c-39 -39 -11 -110 45 -110 29 0 65 36 65 65 0 27 -40 65
-68 65 -12 0 -31 -9 -42 -20z m89 -28 c12 -23 -3 -59 -28 -67 -24 -7 -56 8
-65 31 -23 60 63 94 93 36z"/>
<path d="M2737 785 c-6 -13 -123 -15 -1094 -15 l-1088 0 -91 -142 -92 -143
327 -3 c303 -2 327 -1 339 15 8 10 40 64 73 120 l59 103 489 0 489 0 69 -120
68 -119 332 -1 332 0 -100 158 c-56 86 -102 158 -104 160 -1 2 -5 -4 -8 -13z"/>
<path d="M349 414 c-16 -19 -1 -48 27 -51 14 -2 13 0 -4 7 -35 15 -25 46 13
43 22 -2 26 0 15 7 -22 14 -36 12 -51 -6z"/>
<path d="M450 395 c0 -30 3 -35 23 -34 16 1 18 2 5 6 -10 2 -18 8 -18 13 0 5
8 11 18 13 16 4 16 5 0 6 -10 0 -18 5 -18 10 0 5 8 12 18 14 13 4 11 5 -5 6
-20 1 -23 -4 -23 -34z"/>
<path d="M548 423 c6 -2 18 -2 25 0 6 3 1 5 -13 5 -14 0 -19 -2 -12 -5z"/>
<path d="M628 423 c6 -2 18 -2 25 0 6 3 1 5 -13 5 -14 0 -19 -2 -12 -5z"/>
<path d="M707 423 c-3 -5 8 -8 23 -8 15 0 26 3 23 8 -2 4 -13 7 -23 7 -10 0
-21 -3 -23 -7z"/>
<path d="M823 424 c19 -6 17 -31 -2 -26 -17 3 -13 -12 7 -24 16 -10 18 -8 17
20 0 23 -5 31 -20 33 -17 1 -17 1 -2 -3z"/>
<path d="M958 423 c7 -3 16 -2 19 1 4 3 -2 6 -13 5 -11 0 -14 -3 -6 -6z"/>
<path d="M1040 395 c0 -30 3 -35 23 -34 16 1 18 2 5 6 -10 2 -18 8 -18 13 0 5
8 11 18 13 16 4 16 5 0 6 -10 0 -18 5 -18 10 0 5 8 12 18 14 13 4 11 5 -5 6
-20 1 -23 -4 -23 -34z"/>
<path d="M1188 423 c6 -2 18 -2 25 0 6 3 1 5 -13 5 -14 0 -19 -2 -12 -5z"/>
<path d="M1273 424 c19 -6 17 -31 -2 -26 -17 3 -13 -12 7 -24 16 -10 18 -8 17
20 0 23 -5 31 -20 33 -17 1 -17 1 -2 -3z"/>
<path d="M1351 399 c-13 -39 -14 -49 -1 -29 8 12 13 13 29 3 17 -11 19 -10 15
2 -4 8 -12 15 -20 15 -8 0 -14 5 -14 11 0 5 4 7 10 4 6 -3 7 1 4 9 -8 22 -10
20 -23 -15z"/>
<path d="M1448 423 c7 -3 16 -2 19 1 4 3 -2 6 -13 5 -11 0 -14 -3 -6 -6z"/>
<path d="M1510 395 c0 -30 3 -35 23 -34 16 1 18 2 5 6 -10 2 -18 8 -18 13 0 5
8 11 18 13 16 4 16 5 0 6 -10 0 -18 5 -18 10 0 5 8 12 18 14 13 4 11 5 -5 6
-20 1 -23 -4 -23 -34z"/>
<path d="M1605 419 c-4 -6 -4 -13 -1 -16 3 -4 6 -1 6 6 0 9 9 12 25 9 13 -3
22 -1 19 3 -7 13 -42 11 -49 -2z"/>
<path d="M1717 423 c-3 -5 8 -8 23 -8 15 0 26 3 23 8 -2 4 -13 7 -23 7 -10 0
-21 -3 -23 -7z"/>
<path d="M1888 423 c7 -3 16 -2 19 1 4 3 -2 6 -13 5 -11 0 -14 -3 -6 -6z"/>
<path d="M2033 423 c12 -3 16 -10 12 -21 -5 -13 -3 -14 6 -5 14 14 3 33 -19
32 -15 -1 -14 -2 1 -6z"/>
<path d="M2108 423 c6 -2 18 -2 25 0 6 3 1 5 -13 5 -14 0 -19 -2 -12 -5z"/>
<path d="M2182 393 c1 -37 1 -37 5 -5 3 19 10 32 19 32 17 0 18 -12 3 -27 -8
-8 -7 -13 3 -18 7 -5 10 -5 6 0 -4 4 -3 14 3 21 14 17 3 34 -22 34 -16 0 -19
-6 -17 -37z"/>
<path d="M2278 423 c6 -2 18 -2 25 0 6 3 1 5 -13 5 -14 0 -19 -2 -12 -5z"/>
<path d="M2357 423 c-3 -5 8 -8 23 -8 15 0 26 3 23 8 -2 4 -13 7 -23 7 -10 0
-21 -3 -23 -7z"/>
<path d="M2473 424 c19 -6 17 -31 -2 -26 -17 3 -13 -12 7 -24 16 -10 18 -8 17
20 0 23 -5 31 -20 33 -17 1 -17 1 -2 -3z"/>
<path d="M2546 405 c-4 -15 -5 -30 -1 -33 3 -3 5 3 5 14 1 16 3 16 14 -5 l14
-24 7 24 c8 23 8 23 16 4 5 -12 8 -14 8 -5 0 8 -4 24 -8 35 -7 17 -9 16 -16
-10 l-8 -30 -12 29 -12 29 -7 -28z"/>
<path d="M2662 405 c-7 -14 -12 -27 -12 -28 0 -1 11 -2 24 -2 21 0 22 3 14 28
-6 15 -11 27 -12 27 -2 0 -8 -11 -14 -25z"/>
<path d="M2741 395 c1 -33 2 -35 8 -15 l7 24 17 -24 17 -24 -1 39 c-1 27 -3
32 -6 16 l-5 -25 -19 25 -19 24 1 -40z"/>
<path d="M2840 415 c-22 -27 17 -72 41 -48 6 6 2 9 -13 9 -17 -1 -23 5 -23 19
0 14 6 20 22 19 12 0 20 3 17 8 -8 13 -30 9 -44 -7z"/>
<path d="M2948 423 c7 -3 16 -2 19 1 4 3 -2 6 -13 5 -11 0 -14 -3 -6 -6z"/>
<path d="M559 392 l25 -20 -22 -5 c-19 -4 -19 -4 -2 -3 29 2 29 16 0 34 l-25
14 24 -20z"/>
<path d="M991 394 c0 -11 3 -14 6 -6 3 7 2 16 -1 19 -3 4 -6 -2 -5 -13z"/>
<path d="M1448 393 c7 -3 16 -2 19 1 4 3 -2 6 -13 5 -11 0 -14 -3 -6 -6z"/>
<path d="M1888 393 c7 -3 16 -2 19 1 4 3 -2 6 -13 5 -11 0 -14 -3 -6 -6z"/>
<path d="M2108 393 c6 -2 18 -2 25 0 6 3 1 5 -13 5 -14 0 -19 -2 -12 -5z"/>
<path d="M2278 393 c6 -2 18 -2 25 0 6 3 1 5 -13 5 -14 0 -19 -2 -12 -5z"/>
<path d="M2948 393 c7 -3 16 -2 19 1 4 3 -2 6 -13 5 -11 0 -14 -3 -6 -6z"/>
<path d="M1604 378 c4 -20 41 -21 56 -1 12 15 12 16 0 6 -17 -16 -46 -17 -53
-3 -3 6 -4 5 -3 -2z"/>
<path d="M707 368 c2 -5 13 -8 23 -8 10 0 21 3 23 8 3 4 -8 7 -23 7 -15 0 -26
-3 -23 -7z"/>
<path d="M1717 368 c2 -5 13 -8 23 -8 10 0 21 3 23 8 3 4 -8 7 -23 7 -15 0
-26 -3 -23 -7z"/>
<path d="M2357 368 c2 -5 13 -8 23 -8 10 0 21 3 23 8 3 4 -8 7 -23 7 -15 0
-26 -3 -23 -7z"/>
<path d="M958 363 c7 -3 16 -2 19 1 4 3 -2 6 -13 5 -11 0 -14 -3 -6 -6z"/>
<path d="M1888 363 c7 -3 16 -2 19 1 4 3 -2 6 -13 5 -11 0 -14 -3 -6 -6z"/>
<path d="M2108 363 c6 -2 18 -2 25 0 6 3 1 5 -13 5 -14 0 -19 -2 -12 -5z"/>
<path d="M2948 363 c7 -3 16 -2 19 1 4 3 -2 6 -13 5 -11 0 -14 -3 -6 -6z"/>
</g>
</svg>
